<svg xml:space="preserve" style="max-height: 500px" viewBox="0 2.1272846624472574 53.10025188916876 56.16033755274262" y="0px" x="0px" xmlns:xlink="http://www.w3.org/1999/xlink" xmlns="http://www.w3.org/2000/svg" id="Capa_1" version="1.1" width="53.10025188916876" height="56.16033755274262">
<style type="text/css">
	.st0{fill:#283380;}
	.st1{opacity:0.67;fill:#283380;enable-background:new    ;}
</style>
<g>
	<g>
		<g>
			<path d="M89.7,37c0,4.3-4.2,7.6-12.2,7.6c-5.6,0-10.5-1.8-13.8-4.7l2.6-2.9c2.7,2.3,6.4,3.8,11.3,3.8&#xA;&#9;&#9;&#9;&#9;c4.2,0,7.5-1.1,7.5-3.4c0-2.3-3-3-8.4-3.4c-6.2-0.5-12.2-1.9-12.2-6.8c0-4.5,4.6-7.2,12.3-7.2c4.7,0,9.1,1.7,11.7,3.6L86,26.7&#xA;&#9;&#9;&#9;&#9;c-2.2-1.7-5.3-3-9.4-3c-3.1,0-7.4,0.6-7.4,3.1c0,2.3,3.6,2.8,8.3,3C84.5,30.4,89.7,32.3,89.7,37z" class="st0"/>
			<path d="M100,43.7h-4.8V20.8h4.8V43.7z" class="st0"/>
			<path d="M120.9,42.4c-1.9,1.3-4.4,2.1-7.1,2.1c-4.5,0-8-2.4-8-7.1V24.7l0,0v-3.9l0,0v-5.3h4.9v5.3h10v3.9h-10v11.9&#xA;&#9;&#9;&#9;&#9;c0,2.6,2,3.8,4.3,3.8c1.7,0,3.2-0.6,4.5-1.4L120.9,42.4z" class="st0"/>
			<path d="M151,20.8v22.9h-4.9v-4.4c-2,3.2-5.8,5.3-10.4,5.3c-7,0-10.4-4.5-10.4-10.6V20.8h4.8v12.7&#xA;&#9;&#9;&#9;&#9;c0,4.5,2.3,6.9,6.9,6.9c3.9,0,7.2-1.8,9.2-5.6V20.8H151z" class="st0"/>
			<path d="M202.7,30.5v13.2h-4.8V30.8c0-4.2-2-6.8-6.5-6.8c-3.9,0-6.7,2-8.4,5.6v0.9v9.7l0,3.4h-4.8V30.8&#xA;&#9;&#9;&#9;&#9;c0-4.2-2-6.8-6.5-6.8c-3.9,0-6.6,2-8.3,5.5v14.2h-4.9V20.8h4.9v4.4c1.8-3.2,5.4-5.3,9.8-5.3c5.1,0,8.1,2.6,9.2,6.3&#xA;&#9;&#9;&#9;&#9;c1.7-3.9,5.6-6.3,10.4-6.3C199.7,20,202.7,24.6,202.7,30.5z" class="st0"/>
			<circle r="3.1" cy="12.4" cx="97.6" class="st0"/>
		</g>
	</g>
	<g>
		<g id="g7301_00000134943062744596291390000003325554073985965998_">
			<path d="M37.4,18.5L27.3,46.8l-2.1-15.7&#xA;&#9;&#9;&#9;&#9;L9.9,28.9L37.4,18.5z" class="st1" id="path7303_00000170239484483717730870000007468681062903364000_"/>
			<path d="M37.4,18.5L27.3,46.8l-2.1-15.7l0,0&#xA;&#9;&#9;&#9;&#9;L37.4,18.5z" class="st0" id="path7305_00000002374006453980810010000012823640815650674852_"/>
		</g>
		<g id="g7319_00000037675813739430785310000015746708866428619410_">
			<path d="M26,3.4c-14.4,0-26,12-26,26.8&#xA;&#9;&#9;&#9;&#9;s11.6,26.8,26,26.8s26-12,26-26.8S40.4,3.4,26,3.4z M26,54.5c-13,0-23.5-10.9-23.5-24.3S13,6,26,6s23.5,10.9,23.5,24.3&#xA;&#9;&#9;&#9;&#9;S39,54.5,26,54.5z" class="st0" id="path7321_00000077313446181812958300000018362466837266292924_"/>
		</g>
	</g>
</g>
</svg>